<svg xmlns="http://www.w3.org/2000/svg" viewBox="0 0 491.11 270.39"><defs><style>.cls-1{fill:#fff;}</style></defs><g id="Layer_2" data-name="Layer 2"><g id="Layer_1-2" data-name="Layer 1"><rect class="cls-1" x="195.48" y="34.45" width="29.69" height="167.51"/><rect class="cls-1" x="161.05" y="69.36" width="29.69" height="167.05"/><rect class="cls-1" x="126.62" y="104.26" width="29.69" height="132.14"/><rect class="cls-1" x="263.9" y="34.45" width="29.69" height="167.51"/><rect class="cls-1" x="298.33" y="69.36" width="29.69" height="167.05"/><rect class="cls-1" x="332.77" y="104.26" width="29.69" height="132.14"/><polygon class="cls-1" points="328.07 241.14 327.52 241.14 293.61 241.14 293.61 206.69 259.17 206.69 259.17 0 229.91 0 229.91 206.69 195.46 206.69 195.46 241.14 0 241.14 0 270.39 224.72 270.39 224.72 235.95 264.37 235.95 264.37 270.39 327.52 270.39 328.07 270.39 491.11 270.39 491.11 241.14 328.07 241.14"/></g></g></svg>