<svg xmlns="http://www.w3.org/2000/svg" viewBox="0 0 491.11 420.52"><defs><style>.cls-1,.cls-2{fill:#fff;}.cls-2{font-size:28.93px;font-family:SolidenTrial-BoldCondensed, Soliden Trial;font-weight:700;}</style></defs><g id="Layer_2" data-name="Layer 2"><g id="Layer_1-2" data-name="Layer 1"><rect class="cls-1" x="195.49" y="34.45" width="29.69" height="167.51"/><rect class="cls-1" x="161.06" y="69.36" width="29.69" height="167.05"/><rect class="cls-1" x="126.63" y="104.26" width="29.69" height="132.14"/><rect class="cls-1" x="263.91" y="34.45" width="29.69" height="167.51"/><rect class="cls-1" x="298.34" y="69.36" width="29.69" height="167.05"/><rect class="cls-1" x="332.77" y="104.26" width="29.69" height="132.14"/><polygon class="cls-1" points="328.07 241.14 327.53 241.14 293.62 241.14 293.62 206.69 259.18 206.69 259.18 0 229.92 0 229.92 206.69 195.47 206.69 195.47 241.14 0 241.14 0 270.39 224.72 270.39 224.72 235.95 264.37 235.95 264.37 270.39 327.53 270.39 328.07 270.39 491.11 270.39 491.11 241.14 328.07 241.14"/><text class="cls-2" transform="translate(69.54 408.09)">Silver Dam Contracting Company</text><rect class="cls-1" x="12.01" y="403.13" width="17.38" height="17.38"/><rect class="cls-1" x="35.71" y="403.13" width="17.38" height="17.38"/><rect class="cls-1" x="130.36" y="290.94" width="17.38" height="17.38"/><rect class="cls-1" x="201.46" y="290.94" width="17.38" height="17.38"/><rect class="cls-1" x="274.93" y="290.94" width="18.96" height="75.85"/><polygon class="cls-1" points="443.71 347.82 431.07 347.82 431.07 319.39 412.11 319.39 412.11 347.82 402.63 347.82 402.63 319.39 383.67 319.39 383.67 347.82 374.19 347.82 374.19 319.39 355.22 319.39 355.22 347.82 345.75 347.82 345.75 319.39 303.08 319.39 303.08 338.34 326.78 338.34 326.78 347.82 303.08 347.82 303.08 366.79 462.67 366.79 462.67 290.94 443.71 290.94 443.71 347.82"/><rect class="cls-1" x="472.15" y="290.94" width="18.96" height="75.85"/><path class="cls-1" d="M246.49,290.94v56.89H233.85V319.39h-47.4v28.44H177V319.39h-63.2v-7.91h-19v36.35H85.33V319.39H37.92v56.88H19V309.9H85.33v-19H0V395.23H56.88V338.35h9.49v28.44H265.45V290.94Zm-87.06,56.89H113.77v-9.48h45.66Zm55.46,0h-9.48v-9.48h9.48Z"/></g></g></svg>